<svg width="1440" height="820" viewBox="0 0 1440 820" preserveAspectRatio="none" fill="none" xmlns="http://www.w3.org/2000/svg">
<path d="M0 819.892L719.838 410L0 0.107422" stroke="#6425F5" stroke-miterlimit="10"/>
<path d="M0 737.981L719.838 409.999L0 82.0176" stroke="#6425F5" stroke-miterlimit="10"/>
<path d="M0 656.072L719.838 410.001L0 163.93" stroke="#6425F5" stroke-miterlimit="10"/>
<path d="M0 574.163L719.838 410.002L0 245.842" stroke="#6425F5" stroke-miterlimit="10"/>
<path d="M0 492.234L719.838 410L0 327.75" stroke="#6425F5" stroke-miterlimit="10"/>
<path d="M0 410.325L719.838 410.002L0 409.678" stroke="#6425F5" stroke-miterlimit="10"/>
<path d="M0 492.234L719.838 410L0 327.75" stroke="#6425F5" stroke-miterlimit="10"/>
<path d="M0 574.163L719.838 410.002L0 245.842" stroke="#6425F5" stroke-miterlimit="10"/>
<path d="M0 656.072L719.838 410.001L0 163.93" stroke="#6425F5" stroke-miterlimit="10"/>
<path d="M0 737.981L719.838 409.999L0 82.0176" stroke="#6425F5" stroke-miterlimit="10"/>
<path d="M0 819.892L719.838 410L0 0.107422" stroke="#6425F5" stroke-miterlimit="10"/>
<path d="M1440 819.892L720.162 410L1440 0.107422" stroke="#6425F5" stroke-miterlimit="10"/>
<path d="M1440 737.981L720.162 409.999L1440 82.0176" stroke="#6425F5" stroke-miterlimit="10"/>
<path d="M1440 656.072L720.162 410.001L1440 163.93" stroke="#6425F5" stroke-miterlimit="10"/>
<path d="M1440 574.163L720.162 410.002L1440 245.842" stroke="#6425F5" stroke-miterlimit="10"/>
<path d="M1440 492.234L720.162 410L1440 327.75" stroke="#6425F5" stroke-miterlimit="10"/>
<path d="M1440 410.325L720.162 410.002L1440 409.678" stroke="#6425F5" stroke-miterlimit="10"/>
<path d="M1440 492.234L720.162 410L1440 327.75" stroke="#6425F5" stroke-miterlimit="10"/>
<path d="M1440 574.163L720.162 410.002L1440 245.842" stroke="#6425F5" stroke-miterlimit="10"/>
<path d="M1440 656.072L720.162 410.001L1440 163.93" stroke="#6425F5" stroke-miterlimit="10"/>
<path d="M1440 737.981L720.162 409.999L1440 82.0176" stroke="#6425F5" stroke-miterlimit="10"/>
<path d="M1440 819.892L720.162 410L1440 0.107422" stroke="#6425F5" stroke-miterlimit="10"/>
<path d="M0.191406 0L720.002 409.908L1439.81 0" stroke="#6425F5" stroke-miterlimit="10"/>
<path d="M144.031 0L719.999 409.908L1295.97 0" stroke="#6425F5" stroke-miterlimit="10"/>
<path d="M287.872 0L719.997 409.908L1152.12 0" stroke="#6425F5" stroke-miterlimit="10"/>
<path d="M431.72 0L720.002 409.908L1008.28 0" stroke="#6425F5" stroke-miterlimit="10"/>
<path d="M575.561 0L719.999 409.908L864.411 0" stroke="#6425F5" stroke-miterlimit="10"/>
<path d="M719.432 0L720 409.908L720.569 0" stroke="#6425F5" stroke-miterlimit="10"/>
<path d="M575.561 0L719.999 409.908L864.411 0" stroke="#6425F5" stroke-miterlimit="10"/>
<path d="M431.72 0L720.002 409.908L1008.28 0" stroke="#6425F5" stroke-miterlimit="10"/>
<path d="M287.872 0L719.997 409.908L1152.12 0" stroke="#6425F5" stroke-miterlimit="10"/>
<path d="M144.031 0L719.999 409.908L1295.97 0" stroke="#6425F5" stroke-miterlimit="10"/>
<path d="M0.191406 0L720.002 409.908L1439.81 0" stroke="#6425F5" stroke-miterlimit="10"/>
<path d="M0.191406 820L720.002 410.092L1439.81 820" stroke="#6425F5" stroke-miterlimit="10"/>
<path d="M144.031 820L719.999 410.092L1295.97 820" stroke="#6425F5" stroke-miterlimit="10"/>
<path d="M287.872 820L719.997 410.092L1152.12 820" stroke="#6425F5" stroke-miterlimit="10"/>
<path d="M431.72 820L720.002 410.092L1008.28 820" stroke="#6425F5" stroke-miterlimit="10"/>
<path d="M575.561 820L719.999 410.092L864.411 820" stroke="#6425F5" stroke-miterlimit="10"/>
<path d="M719.432 820L720 410.092L720.569 820" stroke="#6425F5" stroke-miterlimit="10"/>
<path d="M575.561 820L719.999 410.092L864.411 820" stroke="#6425F5" stroke-miterlimit="10"/>
<path d="M431.72 820L720.002 410.092L1008.28 820" stroke="#6425F5" stroke-miterlimit="10"/>
<path d="M287.872 820L719.997 410.092L1152.12 820" stroke="#6425F5" stroke-miterlimit="10"/>
<path d="M144.031 820L719.999 410.092L1295.97 820" stroke="#6425F5" stroke-miterlimit="10"/>
<path d="M0.191406 820L720.002 410.092L1439.81 820" stroke="#6425F5" stroke-miterlimit="10"/>
<rect x="445.5" y="253.5" width="549" height="313" stroke="#6425F5"/>
<rect x="445.5" y="253.5" width="549" height="313" stroke="#6425F5"/>
<rect x="445.5" y="253.5" width="549" height="313" stroke="#6425F5"/>
<rect x="601.5" y="342.5" width="237" height="135" stroke="#6425F5"/>
<rect x="601.5" y="342.5" width="237" height="135" stroke="#6425F5"/>
<rect x="601.5" y="342.5" width="237" height="135" stroke="#6425F5"/>
<rect x="252.5" y="144.5" width="935" height="531" stroke="#6425F5"/>
<rect x="252.5" y="144.5" width="935" height="531" stroke="#6425F5"/>
<rect x="252.5" y="144.5" width="935" height="531" stroke="#6425F5"/>
<rect x="65.5" y="37.5" width="1309" height="745" stroke="#6425F5"/>
<rect x="65.5" y="37.5" width="1309" height="745" stroke="#6425F5"/>
<rect x="65.5" y="37.5" width="1309" height="745" stroke="#6425F5"/>
<rect width="1440" height="820" fill="url(#paint0_radial_559_499)"/>
<defs>
<radialGradient id="paint0_radial_559_499" cx="0" cy="0" r="1" gradientUnits="userSpaceOnUse" gradientTransform="translate(720 410) rotate(90) scale(410 720)">
<stop stop-color="#0D0D0D"/>
<stop offset="1" stop-color="#0D0D0D" stop-opacity="0"/>
</radialGradient>
</defs>
</svg>
